<svg version="1.0" xmlns="http://www.w3.org/2000/svg" width="1706.667" height="1701.333" viewBox="0 0 1280 1276" fill="currentColor"><path d="M460 1.1C338.3 9.6 228.7 59.1 144 144 65.2 223 16.9 322.8 3.6 434.5c-15.3 127.8 20 256.4 98.3 358.5 18.1 23.7 50.1 57 72.6 75.9 31.6 26.3 64.1 47.3 102 65.7 53.7 26.1 105.2 40.4 171.5 47.6 18.3 1.9 72 1.6 92.5-.5 70.3-7.5 135.9-28.2 194.8-61.4l9.8-5.6 8.7 8.5c4.8 4.6 80.5 78.2 168.3 163.4 87.7 85.3 161.8 157.1 164.6 159.6 22.7 20.2 53 31.1 81.8 29.5 18-1 29.2-4 46-12.2 13.2-6.5 21.3-12.5 32.3-23.9 34.1-35.5 42.7-87.9 21.7-132.3-6.2-13.2-13.4-23.1-26-35.9-6-6.1-82.9-80.8-170.7-165.8C983.9 820.5 912 750.5 912 750.1c0-.5 2.5-5.1 5.5-10.2 13.5-22.6 28.2-54.5 37.7-81.4 18.2-51.6 27.1-99.3 28.5-154 2-80.6-14.3-156.5-49.1-228-23.9-49.1-52.1-89.3-89.6-127.9-37.9-38.9-79.4-69.5-127.5-94.2C638.6 14 547.1-5 460 1.1zm50.2 197.3c47.8 2 100 19.4 142.5 47.5 136.6 90.4 174.6 270.2 85.7 406.1-22.1 33.8-52.1 63.8-86.4 86.3-89.2 58.6-205.2 63.5-298.3 12.7-73.6-40.1-126.6-107.9-146.8-187.7-6.8-26.9-8.3-39.8-8.3-71.3 0-23.6.3-29.6 2.3-42 4.9-31.6 12.7-56.9 26-84.5 15.1-31.4 32.7-56 57.6-81C330.8 238 389.4 208.8 454 200c9-1.3 35.5-2.8 40.5-2.3 1.7.1 8.7.5 15.7.7z"/></svg>